<?xml version="1.0" standalone="no"?>
<!DOCTYPE svg PUBLIC "-//W3C//DTD SVG 20010904//EN"
 "http://www.w3.org/TR/2001/REC-SVG-20010904/DTD/svg10.dtd">
<svg version="1.0" xmlns="http://www.w3.org/2000/svg"
 width="50.000000pt" height="50.000000pt" viewBox="0 0 50.000000 50.000000"
 preserveAspectRatio="xMidYMid meet">
<metadata>
Created by potrace 1.10, written by Peter Selinger 2001-2011
</metadata>
<g transform="translate(0.000000,50.000000) scale(0.100000,-0.100000)"
fill="#000000" stroke="none">
<path d="M237 494 c-4 -4 -7 -19 -7 -33 0 -19 -3 -22 -12 -13 -7 7 -18 12 -25
12 -21 0 -15 -25 12 -50 21 -19 25 -33 25 -76 l0 -53 -44 27 c-36 22 -46 34
-51 65 -5 28 -11 37 -27 37 -17 0 -19 -4 -14 -27 7 -26 7 -26 -19 -9 -14 9
-30 14 -35 11 -18 -11 -10 -32 18 -45 26 -13 26 -14 5 -18 -15 -2 -23 -10 -23
-23 0 -21 16 -24 54 -9 21 7 36 5 71 -12 25 -12 45 -25 45 -28 0 -3 -20 -16
-45 -28 -35 -17 -50 -19 -71 -12 -38 15 -54 12 -54 -9 0 -13 8 -21 23 -23 21
-4 21 -5 -5 -18 -28 -13 -36 -34 -18 -45 5 -3 21 2 35 11 26 17 26 17 19 -9
-5 -23 -3 -27 14 -27 15 0 21 9 26 35 5 26 18 42 51 65 l45 31 0 -54 c0 -44
-4 -58 -25 -77 -14 -13 -25 -29 -25 -37 0 -17 26 -17 37 -1 5 9 9 3 13 -17 3
-17 11 -30 20 -30 9 0 17 13 20 30 4 20 8 26 13 17 11 -16 37 -16 37 1 0 8
-11 24 -25 37 -21 19 -25 33 -25 76 l0 53 44 -27 c36 -22 46 -34 51 -64 5 -29
11 -38 27 -38 17 0 19 4 14 27 -7 26 -7 26 19 9 14 -9 30 -14 35 -11 18 11 10
32 -17 45 -27 13 -27 14 -5 18 14 2 22 10 22 23 0 21 -16 24 -55 9 -20 -8 -35
-5 -70 13 -24 12 -44 24 -44 27 0 3 20 15 44 27 35 18 50 21 70 13 39 -15 55
-12 55 10 0 11 -7 20 -15 20 -8 0 -15 5 -15 10 0 6 7 10 15 10 18 0 30 24 20
39 -4 7 -16 6 -36 -4 -29 -16 -30 -16 -23 10 5 21 3 25 -14 25 -16 0 -22 -9
-27 -37 -5 -31 -15 -43 -51 -65 l-44 -27 0 53 c0 43 4 57 25 76 14 13 25 29
25 37 0 17 -26 17 -37 1 -5 -9 -9 -3 -13 16 -5 29 -20 43 -33 30z"/>
</g>
</svg>
